<?xml version="1.0" encoding="UTF-8"?><svg id="Layer_1" xmlns="http://www.w3.org/2000/svg" viewBox="0 0 98 40"><defs><style>.cls-1{fill:#fff;}</style></defs><path class="cls-1" d="m20.4492,12.9516v1.8024h-2.8586c-.6543,0-2.7872.2601-2.7872,3.6038v8.0091h-1.8034v-8.0091c0-3.9906,2.4733-5.4063,4.5906-5.4063h2.8586Zm4.8048,1.5516c-3.3535,0-5.8825,2.598-5.8825,6.0429,0,2.4366,1.9315,6.0424,6.0752,6.0424,3.2772,0,4.9613-1.5124,5.3994-1.976l-1.3105-1.2381c-.223.2357-1.466,1.4117-4.0889,1.4117-2.5867,0-3.7848-1.9071-4.1476-3.3388h7.0209c1.9103,0,2.2378-1.7738,2.2317-2.3276,0-1.6567-1.7701-4.6165-5.2977-4.6165Zm0,1.8024c2.4205,0,3.4943,2.0391,3.4943,2.8175-.0059.5218-.3022.5218-.4284.5218h-7.0688c.3912-2.1965,2.2073-3.3393,4.0029-3.3393Zm4.8107-3.354v1.8024h1.0142c1.3105,0,2.2445,1.1027,3.3251,3.9168l2.1115,5.8214c.2543.9868,1.1041,2.6562,2.6767,2.6562,1.5736,0,2.4234-1.6694,2.6669-2.6205l2.0256-6.7271h-1.9067l-1.8549,6.2425c-.0978.3834-.5066,1.3027-.931,1.3027-.4078,0-.8147-.865-.9555-1.3848l-2.1437-5.9202c-1.0151-2.6435-2.3246-5.0894-5.0141-5.0894h-1.0142Zm31.1779,4.7598h-1.8034v8.658h1.8034v-8.658Zm-21.8773-4.7598v1.8024h3.4807c2.2474,0,3.1305.7442,3.9354,3.307l1.9403,6.4312c.2543.9863,1.1031,2.6562,2.6767,2.6562s2.4225-1.6699,2.666-2.6205l1.9482-6.4571c.8078-2.5726,1.6909-3.3168,3.9383-3.3168h5.0013v6.2331c0,3.7697,1.9159,5.6019,5.8571,5.6019h1.2156v-1.8024h-1.2156c-3.376,0-4.0537-1.4537-4.0537-3.7994v-6.2331h4.6259c2.2484,0,3.1315.7437,3.9481,3.3481l2.4915,7.0233-.96,2.2612c-1.0317,2.4288-1.8474,3.5731-4.8605,3.5731h-2.0078v1.8024h2.0078c4.1945,0,5.4346-2.1154,6.5192-4.6713l6.4805-15.2629h-1.958l-4.179,9.8429-1.8242-5.1392c-1.0327-3.2958-2.619-4.5799-5.6575-4.5799h-4.6259v-3.7136l-1.8034.7654v2.9481h-5.0013c-3.0366,0-4.6229,1.2841-5.6605,4.5892l-1.9609,6.4996c-.1163.441-.5222,1.3056-.931,1.3056s-.8146-.8646-.9408-1.3384l-1.954-6.4766c-1.0347-3.2953-2.621-4.5794-5.6576-4.5794h-3.4807Z"/></svg>