<svg width="449" height="50" viewBox="0 0 449 50" fill="none" xmlns="http://www.w3.org/2000/svg">
<path d="M65.648 39.792C64.08 39.792 62.656 39.552 61.376 39.072C60.128 38.592 59.04 37.952 58.112 37.152C57.216 36.32 56.512 35.408 56 34.416L58.16 32.688C58.768 34.032 59.712 35.136 60.992 36C62.304 36.832 63.856 37.248 65.648 37.248C67.344 37.248 68.704 36.88 69.728 36.144C70.752 35.376 71.264 34.336 71.264 33.024C71.264 31.936 70.944 31.104 70.304 30.528C69.696 29.92 68.896 29.44 67.904 29.088C66.944 28.736 65.888 28.432 64.736 28.176C63.84 27.952 62.944 27.696 62.048 27.408C61.152 27.088 60.336 26.704 59.6 26.256C58.896 25.776 58.336 25.168 57.92 24.432C57.504 23.696 57.296 22.784 57.296 21.696C57.296 19.84 58.016 18.336 59.456 17.184C60.928 16.032 62.832 15.456 65.168 15.456C66.928 15.456 68.528 15.84 69.968 16.608C71.44 17.344 72.576 18.48 73.376 20.016L71.408 21.456C70.736 20.208 69.84 19.312 68.72 18.768C67.632 18.192 66.416 17.904 65.072 17.904C63.632 17.904 62.432 18.224 61.472 18.864C60.544 19.504 60.08 20.368 60.08 21.456C60.08 22.256 60.304 22.912 60.752 23.424C61.2 23.904 61.84 24.304 62.672 24.624C63.504 24.944 64.48 25.232 65.6 25.488C66.624 25.712 67.632 25.984 68.624 26.304C69.648 26.624 70.576 27.04 71.408 27.552C72.272 28.032 72.944 28.688 73.424 29.52C73.936 30.352 74.192 31.408 74.192 32.688C74.192 34.128 73.84 35.392 73.136 36.48C72.432 37.536 71.44 38.352 70.16 38.928C68.88 39.504 67.376 39.792 65.648 39.792Z" fill="black"/>
<path d="M80.4703 39.456V15.792H83.4942V39.456H80.4703ZM80.1823 11.184V6H83.7823V11.184H80.1823Z" fill="black"/>
<path d="M100.188 49.632C96.8285 49.632 94.1725 49.008 92.2205 47.76C90.3005 46.512 89.3405 44.784 89.3405 42.576C89.3405 42.416 89.3405 42.208 89.3405 41.952C89.3405 41.728 89.3725 41.52 89.4365 41.328L94.9085 36.96L96.0605 37.728L92.3645 42C92.3325 42.128 92.3165 42.24 92.3165 42.336C92.3165 42.464 92.3165 42.576 92.3165 42.672C92.3165 44.208 93.0525 45.36 94.5245 46.128C95.9965 46.896 97.8845 47.28 100.188 47.28C102.14 47.28 103.741 46.96 104.989 46.32C106.269 45.712 106.909 44.752 106.909 43.44C106.909 42.672 106.684 42.048 106.236 41.568C105.82 41.12 105.228 40.752 104.46 40.464C103.692 40.208 102.796 39.984 101.772 39.792C100.748 39.632 99.6445 39.456 98.4605 39.264C97.0525 39.04 95.6925 38.736 94.3805 38.352C93.1005 37.936 92.0445 37.36 91.2125 36.624C90.4125 35.856 90.0125 34.832 90.0125 33.552C90.0125 32.464 90.3645 31.504 91.0685 30.672C91.7725 29.808 92.7485 29.072 93.9965 28.464L95.9165 29.808C94.8285 30.128 94.0445 30.576 93.5645 31.152C93.1165 31.696 92.8925 32.352 92.8925 33.12C92.8925 33.856 93.1325 34.448 93.6125 34.896C94.1245 35.344 94.8125 35.696 95.6765 35.952C96.5725 36.176 97.6125 36.368 98.7965 36.528C100.269 36.752 101.66 36.992 102.972 37.248C104.316 37.504 105.501 37.856 106.525 38.304C107.581 38.752 108.396 39.344 108.972 40.08C109.58 40.848 109.885 41.856 109.885 43.104C109.885 45.216 109.004 46.832 107.244 47.952C105.516 49.072 103.164 49.632 100.188 49.632ZM99.5165 31.632C97.7885 31.632 96.2365 31.296 94.8605 30.624C93.5165 29.952 92.4605 29.008 91.6925 27.792C90.9565 26.576 90.5885 25.184 90.5885 23.616C90.5885 22.016 90.9725 20.608 91.7405 19.392C92.5405 18.144 93.6125 17.184 94.9565 16.512C96.3005 15.808 97.7885 15.456 99.4205 15.456C101.053 15.456 102.524 15.808 103.836 16.512C105.18 17.184 106.237 18.144 107.005 19.392C107.805 20.64 108.205 22.096 108.205 23.76C108.205 25.328 107.821 26.704 107.053 27.888C106.317 29.072 105.292 30 103.98 30.672C102.7 31.312 101.212 31.632 99.5165 31.632ZM99.4685 29.136C101.229 29.136 102.621 28.608 103.645 27.552C104.669 26.496 105.181 25.168 105.181 23.568C105.181 21.872 104.653 20.512 103.597 19.488C102.541 18.432 101.165 17.904 99.4685 17.904C97.7405 17.904 96.3325 18.432 95.2445 19.488C94.1565 20.544 93.6125 21.888 93.6125 23.52C93.6125 25.12 94.1405 26.464 95.1965 27.552C96.2525 28.608 97.6765 29.136 99.4685 29.136ZM106.716 19.872L104.509 18.384L109.261 14.352L110.797 16.272L106.716 19.872Z" fill="black"/>
<path d="M115.205 39.456V15.792H118.277V21.312L117.557 21.552C117.973 20.24 118.565 19.136 119.333 18.24C120.101 17.344 121.013 16.656 122.069 16.176C123.157 15.696 124.357 15.456 125.669 15.456C128.229 15.456 130.229 16.224 131.669 17.76C133.109 19.264 133.829 21.568 133.829 24.672V39.456H130.805V25.776C130.805 23.152 130.309 21.216 129.317 19.968C128.357 18.72 126.901 18.096 124.949 18.096C123.605 18.096 122.421 18.432 121.397 19.104C120.405 19.744 119.637 20.784 119.093 22.224C118.549 23.632 118.277 25.472 118.277 27.744V39.456H115.205Z" fill="black"/>
<path d="M156.826 39.456L156.634 34.08V24.72C156.634 22.544 156.074 20.896 154.954 19.776C153.834 18.656 152.186 18.096 150.01 18.096C148.602 18.096 147.306 18.384 146.122 18.96C144.938 19.504 143.818 20.448 142.762 21.792L140.554 19.92C141.834 18.384 143.258 17.264 144.826 16.56C146.426 15.824 148.218 15.456 150.202 15.456C153.21 15.456 155.53 16.256 157.162 17.856C158.794 19.424 159.61 21.712 159.61 24.72V39.456H156.826ZM148.474 39.792C146.714 39.792 145.178 39.488 143.866 38.88C142.586 38.272 141.594 37.44 140.89 36.384C140.218 35.296 139.882 34.032 139.882 32.592C139.882 31.312 140.122 30.24 140.602 29.376C141.114 28.48 141.77 27.776 142.57 27.264C143.434 26.688 144.41 26.288 145.498 26.064C146.618 25.84 147.818 25.728 149.098 25.728H156.922V28.032H149.482C148.554 28.032 147.642 28.112 146.746 28.272C145.882 28.432 145.146 28.752 144.538 29.232C144.026 29.584 143.626 30.048 143.338 30.624C143.082 31.168 142.954 31.824 142.954 32.592C142.954 34.032 143.466 35.184 144.49 36.048C145.546 36.88 146.97 37.296 148.762 37.296C150.202 37.296 151.514 36.96 152.698 36.288C153.882 35.584 154.826 34.624 155.53 33.408C156.266 32.192 156.634 30.832 156.634 29.328L157.93 30.768C157.77 32.56 157.258 34.144 156.394 35.52C155.53 36.896 154.41 37.952 153.034 38.688C151.658 39.424 150.138 39.792 148.474 39.792Z" fill="black"/>
<path d="M171.135 39.792C169.791 39.792 168.719 39.376 167.919 38.544C167.119 37.68 166.719 36.32 166.719 34.464V6H169.743V33.936C169.743 35.024 169.951 35.808 170.367 36.288C170.783 36.768 171.343 37.008 172.047 37.008C172.367 37.008 172.719 36.976 173.103 36.912C173.487 36.816 173.887 36.704 174.303 36.576V39.168C173.759 39.36 173.199 39.504 172.623 39.6C172.079 39.728 171.583 39.792 171.135 39.792Z" fill="black"/>
<path d="M186.398 39.792C184.83 39.792 183.406 39.552 182.126 39.072C180.878 38.592 179.79 37.952 178.862 37.152C177.966 36.32 177.262 35.408 176.75 34.416L178.91 32.688C179.518 34.032 180.462 35.136 181.742 36C183.054 36.832 184.606 37.248 186.398 37.248C188.094 37.248 189.454 36.88 190.478 36.144C191.502 35.376 192.014 34.336 192.014 33.024C192.014 31.936 191.694 31.104 191.054 30.528C190.446 29.92 189.646 29.44 188.654 29.088C187.694 28.736 186.638 28.432 185.486 28.176C184.59 27.952 183.694 27.696 182.798 27.408C181.902 27.088 181.086 26.704 180.35 26.256C179.646 25.776 179.086 25.168 178.67 24.432C178.254 23.696 178.046 22.784 178.046 21.696C178.046 19.84 178.766 18.336 180.206 17.184C181.678 16.032 183.582 15.456 185.918 15.456C187.678 15.456 189.278 15.84 190.718 16.608C192.19 17.344 193.326 18.48 194.126 20.016L192.158 21.456C191.486 20.208 190.59 19.312 189.47 18.768C188.382 18.192 187.166 17.904 185.822 17.904C184.382 17.904 183.182 18.224 182.222 18.864C181.294 19.504 180.83 20.368 180.83 21.456C180.83 22.256 181.054 22.912 181.502 23.424C181.95 23.904 182.59 24.304 183.422 24.624C184.254 24.944 185.23 25.232 186.35 25.488C187.374 25.712 188.382 25.984 189.374 26.304C190.398 26.624 191.326 27.04 192.158 27.552C193.022 28.032 193.694 28.688 194.174 29.52C194.686 30.352 194.942 31.408 194.942 32.688C194.942 34.128 194.59 35.392 193.886 36.48C193.182 37.536 192.19 38.352 190.91 38.928C189.63 39.504 188.126 39.792 186.398 39.792Z" fill="black"/>
<path d="M200.74 39.456V6H206.932V39.456H200.74Z" fill="black"/>
<path d="M213.062 39.456V15.792H219.062V21.936L217.766 22.944C217.99 21.44 218.374 20.192 218.918 19.2C219.462 18.208 220.102 17.44 220.838 16.896C221.606 16.32 222.39 15.92 223.19 15.696C224.022 15.44 224.838 15.312 225.638 15.312C226.886 15.312 228.07 15.552 229.19 16.032C230.31 16.48 231.286 17.264 232.118 18.384C232.95 19.504 233.526 21.04 233.846 22.992L230.294 24.288C230.774 22.048 231.462 20.272 232.358 18.96C233.286 17.648 234.342 16.72 235.526 16.176C236.742 15.6 238.022 15.312 239.366 15.312C241.382 15.312 243.014 15.76 244.262 16.656C245.51 17.552 246.422 18.704 246.998 20.112C247.606 21.488 247.91 22.96 247.91 24.528V39.456H241.958V25.968C241.958 24.784 241.798 23.792 241.478 22.992C241.19 22.16 240.758 21.536 240.182 21.12C239.606 20.704 238.854 20.496 237.926 20.496C236.966 20.496 236.15 20.752 235.478 21.264C234.806 21.776 234.294 22.544 233.942 23.568C233.622 24.592 233.462 25.904 233.462 27.504V39.456H227.51V25.872C227.51 24.08 227.174 22.736 226.502 21.84C225.862 20.944 224.918 20.496 223.67 20.496C222.678 20.496 221.83 20.752 221.126 21.264C220.454 21.776 219.942 22.544 219.59 23.568C219.238 24.592 219.062 25.904 219.062 27.504V39.456H213.062Z" fill="black"/>
<path d="M268.683 39.456L268.203 35.904V24.528C268.203 23.12 267.755 22.08 266.859 21.408C265.995 20.704 264.811 20.352 263.307 20.352C262.059 20.352 260.779 20.608 259.467 21.12C258.187 21.6 257.051 22.288 256.059 23.184L253.035 19.104C254.699 17.76 256.395 16.8 258.123 16.224C259.883 15.616 261.771 15.312 263.787 15.312C267.051 15.312 269.595 16.128 271.419 17.76C273.243 19.392 274.155 21.648 274.155 24.528V39.456H268.683ZM261.531 39.936C259.803 39.936 258.251 39.616 256.875 38.976C255.531 38.336 254.459 37.424 253.659 36.24C252.891 35.056 252.507 33.696 252.507 32.16C252.507 30.784 252.779 29.616 253.323 28.656C253.899 27.664 254.651 26.912 255.579 26.4C256.379 25.92 257.259 25.584 258.219 25.392C259.211 25.2 260.267 25.104 261.387 25.104H268.731V29.52H262.251C261.739 29.52 261.227 29.568 260.715 29.664C260.235 29.728 259.819 29.904 259.467 30.192C259.147 30.416 258.907 30.704 258.747 31.056C258.587 31.376 258.507 31.744 258.507 32.16C258.507 33.056 258.859 33.776 259.563 34.32C260.267 34.864 261.211 35.136 262.395 35.136C263.451 35.136 264.411 34.912 265.275 34.464C266.171 33.984 266.875 33.344 267.387 32.544C267.931 31.712 268.203 30.768 268.203 29.712L269.787 32.88C269.371 34.544 268.731 35.904 267.867 36.96C267.035 37.984 266.075 38.736 264.987 39.216C263.899 39.696 262.747 39.936 261.531 39.936Z" fill="black"/>
<path d="M289.702 49.728C286.182 49.728 283.398 49.104 281.35 47.856C279.334 46.608 278.326 44.88 278.326 42.672C278.326 42.48 278.342 42.24 278.374 41.952C278.406 41.696 278.454 41.44 278.518 41.184L285.142 37.056L286.63 38.736L283.606 42.432C283.574 42.528 283.558 42.608 283.558 42.672C283.558 42.736 283.558 42.8 283.558 42.864C283.558 43.76 284.118 44.448 285.238 44.928C286.358 45.408 287.846 45.648 289.702 45.648C291.27 45.648 292.47 45.44 293.302 45.024C294.134 44.64 294.55 44.064 294.55 43.296C294.55 42.88 294.438 42.544 294.214 42.288C293.99 42.032 293.622 41.824 293.11 41.664C292.598 41.504 291.926 41.36 291.094 41.232C290.294 41.104 289.318 40.96 288.166 40.8C286.694 40.64 285.254 40.336 283.846 39.888C282.438 39.472 281.27 38.848 280.342 38.016C279.414 37.152 278.95 36.016 278.95 34.608C278.95 33.36 279.382 32.224 280.246 31.2C281.11 30.144 282.246 29.28 283.654 28.608L286.534 30.912C285.67 31.04 285.014 31.328 284.566 31.776C284.15 32.224 283.942 32.752 283.942 33.36C283.942 33.872 284.15 34.288 284.566 34.608C284.982 34.896 285.574 35.12 286.342 35.28C287.11 35.44 288.022 35.584 289.078 35.712C290.71 35.936 292.214 36.176 293.59 36.432C294.998 36.688 296.214 37.056 297.238 37.536C298.294 37.984 299.094 38.608 299.638 39.408C300.214 40.208 300.502 41.248 300.502 42.528C300.502 44.864 299.558 46.64 297.67 47.856C295.814 49.104 293.158 49.728 289.702 49.728ZM289.222 32.832C287.238 32.832 285.494 32.464 283.99 31.728C282.518 30.96 281.366 29.936 280.534 28.656C279.702 27.344 279.286 25.84 279.286 24.144C279.286 22.384 279.718 20.848 280.582 19.536C281.478 18.192 282.662 17.152 284.134 16.416C285.638 15.68 287.27 15.312 289.03 15.312C290.758 15.312 292.358 15.68 293.83 16.416C295.334 17.152 296.534 18.208 297.43 19.584C298.358 20.928 298.822 22.512 298.822 24.336C298.822 26.064 298.406 27.568 297.574 28.848C296.774 30.096 295.654 31.072 294.214 31.776C292.774 32.48 291.11 32.832 289.222 32.832ZM289.078 28.128C290.358 28.128 291.302 27.744 291.91 26.976C292.55 26.176 292.87 25.216 292.87 24.096C292.87 22.944 292.534 22.016 291.862 21.312C291.19 20.576 290.262 20.208 289.078 20.208C287.894 20.208 286.95 20.576 286.246 21.312C285.574 22.048 285.238 22.976 285.238 24.096C285.238 25.216 285.558 26.176 286.198 26.976C286.838 27.744 287.798 28.128 289.078 28.128ZM297.19 20.784L292.918 18L298.39 13.632L301.414 17.328L297.19 20.784Z" fill="black"/>
<path d="M314.793 39.936C312.745 39.936 310.986 39.6 309.514 38.928C308.042 38.256 306.825 37.36 305.865 36.24C304.937 35.088 304.249 33.792 303.801 32.352C303.353 30.88 303.13 29.344 303.13 27.744C303.13 26.208 303.353 24.704 303.801 23.232C304.249 21.76 304.922 20.432 305.818 19.248C306.714 18.064 307.865 17.12 309.273 16.416C310.713 15.68 312.425 15.312 314.409 15.312C316.265 15.312 317.882 15.632 319.258 16.272C320.634 16.88 321.769 17.744 322.665 18.864C323.561 19.952 324.233 21.232 324.681 22.704C325.161 24.176 325.401 25.744 325.401 27.408C325.401 27.632 325.386 27.952 325.354 28.368C325.354 28.752 325.322 29.168 325.258 29.616H309.081C309.241 31.312 309.866 32.592 310.954 33.456C312.074 34.32 313.465 34.752 315.129 34.752C316.345 34.752 317.529 34.544 318.681 34.128C319.833 33.68 320.858 33.056 321.754 32.256L324.729 36.288C323.609 37.152 322.553 37.856 321.561 38.4C320.569 38.944 319.529 39.328 318.441 39.552C317.385 39.808 316.169 39.936 314.793 39.936ZM319.497 26.64C319.561 26.384 319.61 26.128 319.642 25.872C319.706 25.616 319.737 25.376 319.737 25.152C319.737 24.48 319.61 23.856 319.354 23.28C319.098 22.672 318.745 22.144 318.297 21.696C317.849 21.248 317.305 20.912 316.665 20.688C316.057 20.432 315.353 20.304 314.553 20.304C313.369 20.304 312.377 20.544 311.577 21.024C310.777 21.504 310.169 22.128 309.753 22.896C309.369 23.632 309.129 24.4 309.033 25.2H321.513L319.497 26.64Z" fill="black"/>
<path d="M327.658 39.456L341.098 6H345.754L359.194 39.456H352.426L343.498 15.168L334.426 39.456H327.658ZM336.49 32.928L338.41 27.36H348.49L350.506 32.928H336.49Z" fill="black"/>
<path d="M362.546 39.456V15.792H368.546V22.224L367.634 22.32C367.73 20.944 368.146 19.728 368.882 18.672C369.618 17.616 370.514 16.8 371.57 16.224C372.658 15.616 373.762 15.312 374.882 15.312C375.682 15.312 376.434 15.424 377.138 15.648C377.874 15.84 378.626 16.176 379.394 16.656L376.514 22.032C376.162 21.84 375.714 21.664 375.17 21.504C374.626 21.344 374.082 21.264 373.538 21.264C372.898 21.264 372.274 21.376 371.666 21.6C371.09 21.824 370.562 22.176 370.082 22.656C369.634 23.136 369.266 23.776 368.978 24.576C368.85 25.024 368.738 25.6 368.642 26.304C368.578 26.976 368.546 27.968 368.546 29.28V39.456H362.546Z" fill="black"/>
<path d="M392.008 39.936C390.728 39.936 389.544 39.696 388.456 39.216C387.368 38.736 386.487 37.952 385.815 36.864C385.175 35.776 384.855 34.32 384.855 32.496V10.272L390.904 7.056V30.864C390.904 32.24 391.079 33.28 391.431 33.984C391.815 34.688 392.551 35.04 393.639 35.04C393.959 35.04 394.311 35.008 394.695 34.944C395.111 34.88 395.559 34.784 396.039 34.656V39.216C395.367 39.472 394.695 39.648 394.023 39.744C393.351 39.872 392.68 39.936 392.008 39.936ZM380.535 20.448V15.792H396.039V20.448H380.535Z" fill="black"/>
<path d="M400.56 39.456V15.792H406.513V39.456H400.56ZM400.368 12.144V6H406.753V12.144H400.368Z" fill="black"/>
<path d="M420.582 39.936C418.822 39.936 417.286 39.68 415.974 39.168C414.662 38.656 413.542 38.016 412.614 37.248C411.718 36.48 410.998 35.744 410.454 35.04L414.534 31.488C415.078 32.384 415.846 33.216 416.838 33.984C417.862 34.72 419.126 35.088 420.63 35.088C421.814 35.088 422.726 34.864 423.366 34.416C424.038 33.936 424.374 33.344 424.374 32.64C424.374 32.064 424.166 31.6 423.75 31.248C423.334 30.864 422.774 30.56 422.07 30.336C421.366 30.08 420.582 29.84 419.718 29.616C418.822 29.36 417.894 29.072 416.934 28.752C415.974 28.432 415.094 28.016 414.294 27.504C413.494 26.96 412.838 26.272 412.326 25.44C411.846 24.608 411.606 23.568 411.606 22.32C411.606 20.24 412.422 18.56 414.054 17.28C415.686 15.968 417.846 15.312 420.534 15.312C422.422 15.312 424.134 15.696 425.67 16.464C427.206 17.2 428.422 18.272 429.318 19.68L425.622 22.608C425.046 21.68 424.278 20.992 423.318 20.544C422.39 20.064 421.398 19.824 420.342 19.824C419.414 19.824 418.646 20 418.038 20.352C417.462 20.704 417.174 21.184 417.174 21.792C417.174 22.208 417.302 22.56 417.558 22.848C417.846 23.136 418.294 23.392 418.902 23.616C419.542 23.808 420.374 24.032 421.398 24.288C422.358 24.512 423.35 24.784 424.374 25.104C425.398 25.424 426.358 25.856 427.254 26.4C428.15 26.944 428.87 27.664 429.414 28.56C429.958 29.456 430.23 30.592 430.23 31.968C430.23 33.536 429.83 34.928 429.03 36.144C428.23 37.328 427.11 38.256 425.67 38.928C424.23 39.6 422.534 39.936 420.582 39.936Z" fill="black"/>
<path d="M444.039 39.936C442.759 39.936 441.575 39.696 440.487 39.216C439.399 38.736 438.519 37.952 437.847 36.864C437.207 35.776 436.887 34.32 436.887 32.496V10.272L442.935 7.056V30.864C442.935 32.24 443.111 33.28 443.463 33.984C443.847 34.688 444.583 35.04 445.671 35.04C445.991 35.04 446.343 35.008 446.727 34.944C447.143 34.88 447.591 34.784 448.071 34.656V39.216C447.399 39.472 446.727 39.648 446.055 39.744C445.383 39.872 444.711 39.936 444.039 39.936ZM432.567 20.448V15.792H448.071V20.448H432.567Z" fill="black"/>
<rect width="48" height="48" rx="9" fill="#FFEB0F"/>
<path d="M18.0422 15.7591C24.745 8.83813 34.1372 6.90392 39.0741 11.6578C44.0129 16.4134 42.4014 25.8446 35.6976 32.7667C28.9948 39.6877 19.6026 41.6219 14.6657 36.8681C9.72689 32.1124 11.3384 22.6813 18.0422 15.7591ZM37.8758 12.9022C33.7473 8.9268 25.3991 10.646 19.2832 16.961C13.1685 23.2749 11.7374 31.6501 15.864 35.6236C19.9925 39.599 28.3407 37.8798 34.4566 31.5648C40.5713 25.251 42.0024 16.8758 37.8758 12.9022Z" fill="black"/>
<path d="M11.9208 18.6081C18.6236 11.6871 28.0158 9.75285 32.9527 14.5067C37.8915 19.2624 36.28 28.6935 29.5761 35.6156C22.8734 42.5366 13.4812 44.4709 8.54427 39.717C3.60548 34.9613 5.21698 25.5302 11.9208 18.6081ZM31.7544 15.7511C27.6259 11.7757 19.2776 13.495 13.1618 19.8099C7.04704 26.1238 5.61597 34.499 9.74256 38.4726C13.871 42.448 22.2193 40.7287 28.3352 34.4138C34.4499 28.0999 35.881 19.7247 31.7544 15.7511Z" fill="black"/>
<path d="M11.9208 12.3842C18.6236 5.4632 28.0158 3.52899 32.9527 8.28284C37.8915 13.0385 36.28 22.4697 29.5761 29.3918C22.8734 36.3128 13.4812 38.247 8.54427 33.4932C3.60548 28.7375 5.21698 19.3063 11.9208 12.3842ZM31.7544 9.52727C27.6259 5.55187 19.2776 7.2711 13.1618 13.5861C7.04704 19.8999 5.61597 28.2751 9.74256 32.2487C13.871 36.2241 22.2193 34.5049 28.3352 28.1899C34.4499 21.876 35.881 13.5009 31.7544 9.52727Z" fill="black"/>
<path d="M23.8092 28.7987C26.5656 28.7987 28.8 26.5643 28.8 23.8079C28.8 21.0516 26.5656 18.8172 23.8092 18.8172C21.0529 18.8172 18.8184 21.0516 18.8184 23.8079C18.8184 26.5643 21.0529 28.7987 23.8092 28.7987Z" fill="black"/>
</svg>
